<svg xmlns="http://www.w3.org/2000/svg" viewBox="0 0 32 32" fill="none">
  <rect width="32" height="32" fill="#0a0a0f"/>
  <rect x="2" y="2" width="28" height="28" fill="#242442" stroke="#64ffda" stroke-width="1"/>
  
  <!-- R letter stylized -->
  <path d="M8 8h8c2 0 3 1 3 3v2c0 2-1 3-3 3h-2l3 6h-2l-3-6h-2v6h-2V8z M10 10v4h6c1 0 1-1 1-2s0-2-1-2h-6z" fill="#64ffda"/>
  
  <!-- Small accent dots -->
  <circle cx="25" cy="9" r="1" fill="#bb86fc"/>
  <circle cx="7" cy="25" r="1" fill="#ffd700"/>
  
  <!-- Minimalist circuit pattern -->
  <line x1="22" y1="22" x2="26" y2="22" stroke="#64ffda" stroke-width="0.5"/>
  <line x1="24" y1="20" x2="24" y2="24" stroke="#64ffda" stroke-width="0.5"/>
</svg>
